<svg xmlns="http://www.w3.org/2000/svg" viewBox="0 0 109.67 109.67"><defs><style>.cls-1{fill:#053673;}.cls-2{fill:#fff;}</style></defs><title>Asset 3</title><g id="Layer_2" data-name="Layer 2"><g id="objects"><circle class="cls-1" cx="54.83" cy="54.83" r="54.83" transform="translate(-8.07 100.17) rotate(-80.78)"/><path class="cls-2" d="M86.34,59.21V81H73.69V60.67c0-5.11-1.83-8.6-6.41-8.6a6.93,6.93,0,0,0-6.49,4.62,8.79,8.79,0,0,0-.42,3.09V81H47.72s.17-34.48,0-38.05H60.37v5.39s-.06.08-.08.12h.08v-.12a12.57,12.57,0,0,1,11.41-6.29c8.32,0,14.56,5.44,14.56,17.13ZM34.48,24.63c-4.33,0-7.16,2.84-7.16,6.58s2.75,6.57,7,6.57h.08c4.41,0,7.16-2.92,7.16-6.57s-2.75-6.58-7.08-6.58ZM28.07,81H40.72V43H28.07Z"/></g></g></svg>