<svg xmlns="http://www.w3.org/2000/svg" viewBox="0 0 109.66 109.67"><defs><style>.cls-1{fill:#053673;}.cls-2{fill:#fff;}</style></defs><title>Asset 2</title><g id="Layer_2" data-name="Layer 2"><g id="objects"><path class="cls-1" d="M0,54.83a54.83,54.83,0,1,1,54.83,54.84A54.83,54.83,0,0,1,0,54.83Z"/><path class="cls-2" d="M88.68,33.84a28.07,28.07,0,0,1-8,2.19,13.93,13.93,0,0,0,6.11-7.69A27.64,27.64,0,0,1,78,31.71a13.9,13.9,0,0,0-24,9.5,14.39,14.39,0,0,0,.36,3.17A39.43,39.43,0,0,1,25.7,29.87,13.9,13.9,0,0,0,30,48.41a13.79,13.79,0,0,1-6.29-1.74v.18A13.88,13.88,0,0,0,34.85,60.46a13.85,13.85,0,0,1-6.27.24,13.9,13.9,0,0,0,13,9.65A28.15,28.15,0,0,1,21,76.1a39.28,39.28,0,0,0,21.29,6.24c25.54,0,39.51-21.16,39.51-39.52,0-.6,0-1.2,0-1.79a28.37,28.37,0,0,0,6.93-7.19Z"/></g></g></svg>